<?xml version="1.0" encoding="utf-8"?>
<!-- Generator: Adobe Illustrator 19.1.0, SVG Export Plug-In . SVG Version: 6.00 Build 0)  -->
<svg version="1.1" id="Calque_1" xmlns="http://www.w3.org/2000/svg" xmlns:xlink="http://www.w3.org/1999/xlink" x="0px" y="0px"
	 viewBox="0 0 960 560" style="enable-background:new 0 0 960 560;" xml:space="preserve">
<style type="text/css">
	.st0{fill:#FFF;}
</style>
<g>
	<path class="st0" d="M579.2,76.3H358.7c-42.7,0-77.5,34.8-77.5,77.5v220.5c0,42.7,34.8,77.5,77.5,77.5h220.5
		c42.7,0,77.5-34.8,77.5-77.5V153.8C656.7,111.1,621.9,76.3,579.2,76.3z M468.9,376.8c-62.2,0-112.8-50.6-112.8-112.8
		s50.6-112.8,112.8-112.8c62.2,0,112.8,50.6,112.8,112.8S531.1,376.8,468.9,376.8z M592.5,161.1c-14.1,0-25.6-11.5-25.6-25.6
		s11.5-25.6,25.6-25.6c14.1,0,25.6,11.5,25.6,25.6S606.6,161.1,592.5,161.1z"/>
</g>
</svg>
