<?xml version="1.0" encoding="utf-8"?>
<!-- Generator: Adobe Illustrator 19.1.0, SVG Export Plug-In . SVG Version: 6.00 Build 0)  -->
<svg version="1.1" id="Calque_1" xmlns="http://www.w3.org/2000/svg" xmlns:xlink="http://www.w3.org/1999/xlink" x="0px" y="0px"
	 viewBox="0 0 960 560" style="enable-background:new 0 0 960 560;" xml:space="preserve">
<style type="text/css">
	.st0{fill:#FFF;}
</style>
<g>
	<path class="st0" d="M605,140.6c-16.6,7.4-34.6,12.5-53.4,14.7c19.2-11.5,33.9-29.7,40.9-51.5c-18,10.7-37.9,18.4-59.2,22.5
		c-16.9-18-41.1-29.3-67.8-29.3c-51.3,0-92.9,41.6-92.9,92.9c0,7.3,0.8,14.4,2.4,21.2c-77.3-3.9-145.7-40.8-191.7-97.1
		c-8,13.7-12.6,29.7-12.6,46.8c0,32.2,16.5,60.7,41.3,77.3c-15.2-0.4-29.5-4.7-42-11.6v1.1c0,45.1,32.1,82.7,74.5,91.3
		c-7.8,2.1-16,3.2-24.5,3.2c-5.9,0-11.8-0.5-17.6-1.6c11.9,36.9,46.2,63.7,86.8,64.6c-31.8,24.9-71.9,39.7-115.5,39.7
		c-7.5,0-14.8-0.4-22.1-1.2c41.2,26.4,90,41.7,142.6,41.7c170.9,0,264.4-141.6,264.4-264.4l-0.3-12
		C576.8,175.6,592.5,159.3,605,140.6L605,140.6z M605,140.6"/>
</g>
</svg>
