<?xml version="1.0" encoding="utf-8"?>
<!-- Generator: Adobe Illustrator 19.1.0, SVG Export Plug-In . SVG Version: 6.00 Build 0)  -->
<svg version="1.1" id="Calque_1" xmlns="http://www.w3.org/2000/svg" xmlns:xlink="http://www.w3.org/1999/xlink" x="0px" y="0px"
	 viewBox="0 0 960 560" style="enable-background:new 0 0 960 560;" xml:space="preserve">
<style type="text/css">
	.st0{fill:#FFF;}
</style>
<g>
	<path class="st0" d="M601,84.3H380.6c-42.7,0-77.5,34.8-77.5,77.5v220.5c0,42.7,34.8,77.5,77.5,77.5h112.9V295.4h-36.6
		c-3.2,0-5.7-2.6-5.7-5.7v-46.2c0-3.2,2.6-5.7,5.7-5.7h36.6V206c0-42,26.4-69.1,67.3-69.1l36.4,0.1c3.2,0,5.7,2.6,5.7,5.7v42.9
		c0,3.2-2.6,5.7-5.7,5.7l-24.5,0c-16.9,0-20,6.6-20,19.6v27h42.8c1.5,0,3,0.6,4,1.7c1.1,1.1,1.7,2.5,1.7,4l0,46.2
		c0,3.2-2.6,5.7-5.7,5.7h-42.8v164.3H601c42.7,0,77.5-34.8,77.5-77.5V161.8C678.5,119,643.8,84.3,601,84.3z"/>
</g>
</svg>
