<?xml version="1.0" encoding="utf-8"?>
<!-- Generator: Adobe Illustrator 19.1.0, SVG Export Plug-In . SVG Version: 6.00 Build 0)  -->
<svg version="1.1" xmlns="http://www.w3.org/2000/svg" xmlns:xlink="http://www.w3.org/1999/xlink" x="0px" y="0px"
	 viewBox="0 0 1190.5 841.9" style="enable-background:new 0 0 1190.5 841.9;" xml:space="preserve">
<style type="text/css">
	.st0{fill:#FFF;}
</style>
<g id="Ubisoft_Type">
	<g>
		<path class="st0" d="M427.8,543.3v53.9c0,21.4-13.1,37.5-37.1,37.5c-24,0-37.1-16-37.1-37.5v-53.9h19.5v52.3
			c0,13.1,6.2,20.5,17.6,20.5c11.4,0,17.6-7.4,17.6-20.5v-52.3H427.8z"/>
		<path class="st0" d="M500.3,606.4c0,15.5-12.2,26.7-31.8,26.7h-31v-89.8h29.9c17.3,0,28.7,8.3,28.7,21.7
			c0,10.1-4.7,16.3-11.8,19.2C493.7,587.8,500.3,594.4,500.3,606.4z M456.9,560.5v19h10.3c6,0,10.1-3.5,10.1-9.5
			c0-6-4.1-9.5-10.1-9.5H456.9z M467.7,615.9c8.3,0,13.1-3.8,13.1-11.3c0-7.4-4.7-11.3-13.1-11.3h-10.8v22.6H467.7z"/>
		<path class="st0" d="M507.8,543.3h19.5v89.8h-19.5V543.3z"/>
		<path class="st0" d="M574.4,579.6c15.4,5.4,23.3,12.3,23.3,26.2c0,18.6-14.2,28.9-31,28.9c-15.5,0-27.4-6.9-32.4-19.8l15.5-11.5
			c2.8,8.1,10.1,13.1,17.4,13.1c6.4,0,11-3.5,11-9.2c0-5.4-3.5-8.7-16.3-13.3c-13.9-5-24.1-11.9-24.1-26.8
			c0-14.4,11.9-25.3,29.2-25.3c13.7,0,24.4,5.5,29.4,16.4L581,569c-2.9-6.7-7.6-10.4-14.6-10.4c-5.9,0-10.3,3.2-10.3,7.8
			C556.1,571.7,561,574.9,574.4,579.6z"/>
		<path class="st0" d="M694.5,588.2c0,26.4-19,46.4-45.7,46.4c-27.3,0-45.7-19.6-45.7-43.4c0-15.4,6-26.5,14.9-33.9l-3.1-3.1
			c6.8-7.1,19.2-12.6,33.9-12.6C675.5,541.8,694.5,562,694.5,588.2z M674.8,588.2c0-16.2-10.3-28-25.9-28c-9.1,0-15.9,3.5-20,8
			l3.1,3.1c-4.7,4-9,9.5-9,19.4c0,13.6,9.6,25.5,25.9,25.5C664.5,616.2,674.8,604.4,674.8,588.2z"/>
		<path class="st0" d="M721.9,561.8v20.8H760v14.9h-38.1v35.7h-19.5v-89.8h61.4v18.5H721.9z"/>
		<path class="st0" d="M841.3,561.8h-25.1v71.3h-19.5v-71.3h-25.3v-18.5h69.9V561.8z"/>
	</g>
</g>
<g id="Ubisoft_Mark">
	<path class="st0" d="M754.8,350.1c-3.4-167.6-226.1-230.1-311.8-73c3.8,2.7,9,6.4,12.8,9.2c-6.6,13.8-10.9,27.8-13.3,41.8
		c-1.7,9.2-2.5,18.6-2.5,28.3c0,87,70.5,157.5,157.5,157.5c87,0,157.5-70.5,157.5-157.5C755,354.3,754.9,352.2,754.8,350.1z
		 M478.8,378.3c-2.1,17.1-0.8,22.4-0.8,24.4l-3.8,1.4c-1.4-2.8-5.1-12.7-6.7-26c-4.1-50.7,30.5-96.4,83.1-104.9
		c48.3-7.1,94.4,22.9,105.2,64.8l-3.8,1.4c-1.1-1.2-3.1-4.6-10.4-12C583.4,268.8,492,295.6,478.8,378.3z M628.7,406.6
		c-7.8,11.2-20.7,18.5-35.3,18.5c-23.7,0-43-19.2-43-43c0-22.7,17.6-41.3,39.8-42.8v0c13.9-0.6,26.8,6.9,32.9,19.1
		c6.6,13.1,4.2,29.3-6.1,40.2C621,401.2,624.8,403.9,628.7,406.6z M718.3,408.3c-22.7,51.6-69.5,78.6-119.4,78
		c-95.8-4.8-123.7-115.4-59.7-155.3l2.8,2.8c-1.1,1.4-4.8,4.4-10.8,16.2c-7,14.2-9.1,28.4-8.3,37.3c5,77.3,113.2,93.1,150.5,16.6
		c47.4-104.9-78.3-211.4-190-130l-2.6-2.6c29.4-46.1,86.7-66.7,141.6-52.9C706.2,239.3,751.2,326.7,718.3,408.3z"/>
</g>
</svg>
